<svg viewBox="0 0 40 40" fill="none" xmlns="http://www.w3.org/2000/svg">
    <rect x="0.799976" y="0.800098" width="38.19" height="38.19" rx="19.095" stroke="#C20000" stroke-width="0.3"/>
    <g filter="url(#filter0_d_361_3062)">
        <path d="M21.4936 20.247H25.0846L25.6484 16.5769H21.4929V14.571C21.4929 13.0463 21.9881 11.6943 23.4056 11.6943H25.6835V8.49149C25.2833 8.43712 24.4368 8.31808 22.8374 8.31808C19.4977 8.31808 17.5397 10.0925 17.5397 14.1352V16.5769H14.1065V20.247H17.5397V30.3347C18.2196 30.4375 18.9083 30.5073 19.6153 30.5073C20.2543 30.5073 20.878 30.4486 21.4936 30.3648V20.247Z" fill="white"/>
        <path d="M21.4936 20.147H21.3936V20.247V30.2773C20.8089 30.3545 20.2185 30.4073 19.6153 30.4073C18.9442 30.4073 18.2887 30.3438 17.6397 30.2485V20.247V20.147H17.5397H14.2065V16.6769H17.5397H17.6397V16.5769V14.1352C17.6397 12.1285 18.1257 10.7034 19.0085 9.77975C19.8904 8.85692 21.1845 8.41808 22.8374 8.41808C24.3235 8.41808 25.1557 8.52115 25.5835 8.57883V11.5943H23.4056C22.6574 11.5943 22.1478 11.9548 21.8308 12.5114C21.5176 13.0615 21.3929 13.8006 21.3929 14.571V16.5769V16.6769H21.4929H25.5319L24.9988 20.147H21.4936Z" stroke="#BFD6FF" stroke-width="0.2"/>
    </g>
    <defs>
        <filter id="filter0_d_361_3062" x="10.1065" y="8.31808" width="19.577" height="30.1892" filterUnits="userSpaceOnUse" color-interpolation-filters="sRGB">
            <feFlood flood-opacity="0" result="BackgroundImageFix"/>
            <feColorMatrix in="SourceAlpha" type="matrix" values="0 0 0 0 0 0 0 0 0 0 0 0 0 0 0 0 0 0 127 0" result="hardAlpha"/>
            <feOffset dy="4"/>
            <feGaussianBlur stdDeviation="2"/>
            <feComposite in2="hardAlpha" operator="out"/>
            <feColorMatrix type="matrix" values="0 0 0 0 0 0 0 0 0 0 0 0 0 0 0 0 0 0 0.15 0"/>
            <feBlend mode="normal" in2="BackgroundImageFix" result="effect1_dropShadow_361_3062"/>
            <feBlend mode="normal" in="SourceGraphic" in2="effect1_dropShadow_361_3062" result="shape"/>
        </filter>
    </defs>
</svg>
