<svg viewBox="0 0 48 49" fill="none" xmlns="http://www.w3.org/2000/svg">
    <circle cx="23.875" cy="20.9751" r="20.875" fill="#7D7D7D"/>
    <g filter="url(#filter0_d_16_14)">
        <rect x="4.60001" y="1.6001" width="38.59" height="38.59" rx="19.295" fill="#3E3E3E"/>
        <rect x="4.80001" y="1.8001" width="38.19" height="38.19" rx="19.095" stroke="#C20000" stroke-opacity="0.53" stroke-width="0.4"/>
    </g>
    <g filter="url(#filter1_d_16_14)">
        <path d="M25.4937 21.2471H29.0846L29.6485 17.5769H25.4929V15.571C25.4929 14.0463 25.9881 12.6944 27.4056 12.6944H29.6835V9.49152C29.2833 9.43715 28.4369 9.31812 26.8375 9.31812C23.4977 9.31812 21.5397 11.0926 21.5397 15.1353V17.5769H18.1065V21.2471H21.5397V31.3347C22.2197 31.4376 22.9083 31.5074 23.6153 31.5074C24.2543 31.5074 24.878 31.4486 25.4937 31.3648V21.2471Z" fill="white"/>
        <path d="M25.4937 21.1471H25.3937V21.2471V31.2773C24.8089 31.3545 24.2185 31.4074 23.6153 31.4074C22.9442 31.4074 22.2887 31.3439 21.6397 31.2485V21.2471V21.1471H21.5397H18.2065V17.6769H21.5397H21.6397V17.5769V15.1353C21.6397 13.1286 22.1257 11.7034 23.0085 10.7798C23.8905 9.85695 25.1846 9.41812 26.8375 9.41812C28.3235 9.41812 29.1557 9.52118 29.5835 9.57887V12.5944H27.4056C26.6574 12.5944 26.1478 12.9548 25.8308 13.5115C25.5176 14.0615 25.3929 14.8006 25.3929 15.571V17.5769V17.6769H25.4929H29.5319L28.9988 21.1471H25.4937Z" stroke="#BFD6FF" stroke-width="0.2"/>
    </g>
    <defs>
        <filter id="filter0_d_16_14" x="0.600006" y="1.6001" filterUnits="userSpaceOnUse" color-interpolation-filters="sRGB">
            <feFlood flood-opacity="0" result="BackgroundImageFix"/>
            <feColorMatrix in="SourceAlpha" type="matrix" values="0 0 0 0 0 0 0 0 0 0 0 0 0 0 0 0 0 0 127 0" result="hardAlpha"/>
            <feOffset dy="4"/>
            <feGaussianBlur stdDeviation="2"/>
            <feComposite in2="hardAlpha" operator="out"/>
            <feColorMatrix type="matrix" values="0 0 0 0 0 0 0 0 0 0 0 0 0 0 0 0 0 0 0.25 0"/>
            <feBlend mode="normal" in2="BackgroundImageFix" result="effect1_dropShadow_16_14"/>
            <feBlend mode="normal" in="SourceGraphic" in2="effect1_dropShadow_16_14" result="shape"/>
        </filter>
        <filter id="filter1_d_16_14" x="14.1065" y="9.31812" filterUnits="userSpaceOnUse" color-interpolation-filters="sRGB">
            <feFlood flood-opacity="0" result="BackgroundImageFix"/>
            <feColorMatrix in="SourceAlpha" type="matrix" values="0 0 0 0 0 0 0 0 0 0 0 0 0 0 0 0 0 0 127 0" result="hardAlpha"/>
            <feOffset dy="4"/>
            <feGaussianBlur stdDeviation="2"/>
            <feComposite in2="hardAlpha" operator="out"/>
            <feColorMatrix type="matrix" values="0 0 0 0 0 0 0 0 0 0 0 0 0 0 0 0 0 0 0.15 0"/>
            <feBlend mode="normal" in2="BackgroundImageFix" result="effect1_dropShadow_16_14"/>
            <feBlend mode="normal" in="SourceGraphic" in2="effect1_dropShadow_16_14" result="shape"/>
        </filter>
    </defs>
</svg>
