<svg viewBox="0 0 48 49" fill="none" xmlns="http://www.w3.org/2000/svg">
    <circle cx="23.875" cy="20.875" r="20.875" fill="#7D7D7D"/>
    <g filter="url(#filter0_d_16_14)">
        <rect x="4.60001" y="1.6001" width="38.5882" height="38.5882" rx="19.2941" fill="#3E3E3E"/>
        <rect x="4.80001" y="1.8001" width="38.1882" height="38.1882" rx="19.0941" stroke="black" stroke-width="0.4"/>
        <rect x="4.80001" y="1.8001" width="38.1882" height="38.1882" rx="19.0941" stroke="#C20000" stroke-opacity="0.53" stroke-width="0.4"/>
    </g>
    <g filter="url(#filter1_d_16_14)">
        <path d="M23.8941 12.9905C26.4512 12.9905 26.7999 12.9905 27.8459 12.9905C28.7758 12.9905 29.2407 13.223 29.5894 13.3392C30.0543 13.5717 30.403 13.6879 30.7517 14.0366C31.1004 14.3853 31.3328 14.734 31.4491 15.1989C31.5653 15.5476 31.6815 16.0125 31.7977 16.9423C31.7977 17.9884 31.7977 18.2208 31.7977 20.8941C31.7977 23.5674 31.7977 23.7999 31.7977 24.8459C31.7977 25.7758 31.5653 26.2407 31.4491 26.5894C31.2166 27.0543 31.1004 27.403 30.7517 27.7517C30.403 28.1004 30.0543 28.3328 29.5894 28.4491C29.2407 28.5653 28.7758 28.6815 27.8459 28.7977C26.7999 28.7977 26.5674 28.7977 23.8941 28.7977C21.2208 28.7977 20.9884 28.7977 19.9423 28.7977C19.0125 28.7977 18.5476 28.5653 18.1989 28.4491C17.734 28.2166 17.3853 28.1004 17.0366 27.7517C16.6879 27.403 16.4554 27.0543 16.3392 26.5894C16.223 26.2407 16.1067 25.7758 15.9905 24.8459C15.9905 23.7999 15.9905 23.5674 15.9905 20.8941C15.9905 18.2208 15.9905 17.9884 15.9905 16.9423C15.9905 16.0125 16.223 15.5476 16.3392 15.1989C16.5717 14.734 16.6879 14.3853 17.0366 14.0366C17.3853 13.6879 17.734 13.4554 18.1989 13.3392C18.5476 13.223 19.0125 13.1067 19.9423 12.9905C20.9884 12.9905 21.3371 12.9905 23.8941 12.9905ZM23.8941 11.2471C21.2208 11.2471 20.9884 11.2471 19.9423 11.2471C18.8963 11.2471 18.1989 11.4795 17.6177 11.712C17.0366 11.9444 16.4554 12.2931 15.8743 12.8743C15.2931 13.4554 15.0607 13.9204 14.712 14.6177C14.4795 15.1989 14.3633 15.8963 14.2471 16.9423C14.2471 17.9884 14.2471 18.3371 14.2471 20.8941C14.2471 23.5674 14.2471 23.7999 14.2471 24.8459C14.2471 25.892 14.4795 26.5894 14.712 27.1705C14.9444 27.7517 15.2931 28.3328 15.8743 28.914C16.4554 29.4951 16.9204 29.7276 17.6177 30.0763C18.1989 30.3087 18.8963 30.425 19.9423 30.5412C20.9884 30.5412 21.3371 30.5412 23.8941 30.5412C26.4512 30.5412 26.7999 30.5412 27.8459 30.5412C28.892 30.5412 29.5894 30.3087 30.1705 30.0763C30.7517 29.8438 31.3328 29.4951 31.914 28.914C32.4951 28.3328 32.7276 27.8679 33.0763 27.1705C33.3087 26.5894 33.425 25.892 33.5412 24.8459C33.5412 23.7999 33.5412 23.4512 33.5412 20.8941C33.5412 18.3371 33.5412 17.9884 33.5412 16.9423C33.5412 15.8963 33.3087 15.1989 33.0763 14.6177C32.8438 14.0366 32.4951 13.4554 31.914 12.8743C31.3328 12.2931 30.8679 12.0607 30.1705 11.712C29.5894 11.4795 28.892 11.3633 27.8459 11.2471C26.7999 11.2471 26.5674 11.2471 23.8941 11.2471Z" fill="white"/>
        <path d="M23.8941 15.8963C21.1046 15.8963 18.8963 18.1046 18.8963 20.8941C18.8963 23.6836 21.1046 25.892 23.8941 25.892C26.6836 25.892 28.892 23.6836 28.892 20.8941C28.892 18.1046 26.6836 15.8963 23.8941 15.8963ZM23.8941 24.1486C22.1507 24.1486 20.6397 22.7538 20.6397 20.8941C20.6397 19.1507 22.0345 17.6397 23.8941 17.6397C25.6376 17.6397 27.1486 19.0345 27.1486 20.8941C27.1486 22.6376 25.6376 24.1486 23.8941 24.1486Z" fill="white"/>
        <path d="M29.0082 16.9423C29.6502 16.9423 30.1705 16.4219 30.1705 15.78C30.1705 15.1381 29.6502 14.6177 29.0082 14.6177C28.3663 14.6177 27.8459 15.1381 27.8459 15.78C27.8459 16.4219 28.3663 16.9423 29.0082 16.9423Z" fill="white"/>
    </g>
    <defs>
        <filter id="filter0_d_16_14" x="0.600006" y="1.6001" filterUnits="userSpaceOnUse" color-interpolation-filters="sRGB">
            <feFlood flood-opacity="0" result="BackgroundImageFix"/>
            <feColorMatrix in="SourceAlpha" type="matrix" values="0 0 0 0 0 0 0 0 0 0 0 0 0 0 0 0 0 0 127 0" result="hardAlpha"/>
            <feOffset dy="4"/>
            <feGaussianBlur stdDeviation="2"/>
            <feComposite in2="hardAlpha" operator="out"/>
            <feColorMatrix type="matrix" values="0 0 0 0 0 0 0 0 0 0 0 0 0 0 0 0 0 0 0.25 0"/>
            <feBlend mode="normal" in2="BackgroundImageFix" result="effect1_dropShadow_16_14"/>
            <feBlend mode="normal" in="SourceGraphic" in2="effect1_dropShadow_16_14" result="shape"/>
        </filter>
        <filter id="filter1_d_16_14" x="10.2471" y="11.2471" filterUnits="userSpaceOnUse" color-interpolation-filters="sRGB">
            <feFlood flood-opacity="0" result="BackgroundImageFix"/>
            <feColorMatrix in="SourceAlpha" type="matrix" values="0 0 0 0 0 0 0 0 0 0 0 0 0 0 0 0 0 0 127 0" result="hardAlpha"/>
            <feOffset dy="4"/>
            <feGaussianBlur stdDeviation="2"/>
            <feComposite in2="hardAlpha" operator="out"/>
            <feColorMatrix type="matrix" values="0 0 0 0 0 0 0 0 0 0 0 0 0 0 0 0 0 0 0.15 0"/>
            <feBlend mode="normal" in2="BackgroundImageFix" result="effect1_dropShadow_16_14"/>
            <feBlend mode="normal" in="SourceGraphic" in2="effect1_dropShadow_16_14" result="shape"/>
        </filter>
    </defs>
</svg>
