<svg viewBox="0 0 40 40" fill="none" xmlns="http://www.w3.org/2000/svg">
    <rect x="0.799976" y="0.800006" width="38.1882" height="38.1882" rx="19.0941" stroke="#C20000" stroke-width="0.3"/>
    <g filter="url(#filter0_d_361_3059)">
        <path d="M19.8941 11.9905C22.4512 11.9905 22.7998 11.9905 23.8459 11.9905C24.7757 11.9905 25.2407 12.223 25.5894 12.3392C26.0543 12.5717 26.403 12.6879 26.7516 13.0366C27.1003 13.3853 27.3328 13.734 27.449 14.1989C27.5653 14.5476 27.6815 15.0125 27.7977 15.9423C27.7977 16.9884 27.7977 17.2208 27.7977 19.8941C27.7977 22.5674 27.7977 22.7999 27.7977 23.8459C27.7977 24.7758 27.5653 25.2407 27.449 25.5894C27.2166 26.0543 27.1003 26.403 26.7516 26.7517C26.403 27.1004 26.0543 27.3328 25.5894 27.4491C25.2407 27.5653 24.7757 27.6815 23.8459 27.7977C22.7998 27.7977 22.5674 27.7977 19.8941 27.7977C17.2208 27.7977 16.9884 27.7977 15.9423 27.7977C15.0125 27.7977 14.5475 27.5653 14.1988 27.4491C13.7339 27.2166 13.3852 27.1004 13.0366 26.7517C12.6879 26.403 12.4554 26.0543 12.3392 25.5894C12.2229 25.2407 12.1067 24.7758 11.9905 23.8459C11.9905 22.7999 11.9905 22.5674 11.9905 19.8941C11.9905 17.2208 11.9905 16.9884 11.9905 15.9423C11.9905 15.0125 12.2229 14.5476 12.3392 14.1989C12.5716 13.734 12.6879 13.3853 13.0366 13.0366C13.3852 12.6879 13.7339 12.4554 14.1988 12.3392C14.5475 12.223 15.0125 12.1067 15.9423 11.9905C16.9884 11.9905 17.337 11.9905 19.8941 11.9905ZM19.8941 10.2471C17.2208 10.2471 16.9884 10.2471 15.9423 10.2471C14.8962 10.2471 14.1988 10.4795 13.6177 10.712C13.0366 10.9444 12.4554 11.2931 11.8743 11.8743C11.2931 12.4554 11.0606 12.9204 10.712 13.6177C10.4795 14.1989 10.3633 14.8963 10.247 15.9423C10.247 16.9884 10.247 17.3371 10.247 19.8941C10.247 22.5674 10.247 22.7999 10.247 23.8459C10.247 24.892 10.4795 25.5894 10.712 26.1705C10.9444 26.7517 11.2931 27.3328 11.8743 27.914C12.4554 28.4951 12.9203 28.7276 13.6177 29.0763C14.1988 29.3087 14.8962 29.425 15.9423 29.5412C16.9884 29.5412 17.337 29.5412 19.8941 29.5412C22.4512 29.5412 22.7998 29.5412 23.8459 29.5412C24.892 29.5412 25.5894 29.3087 26.1705 29.0763C26.7516 28.8438 27.3328 28.4951 27.9139 27.914C28.4951 27.3328 28.7276 26.8679 29.0762 26.1705C29.3087 25.5894 29.4249 24.892 29.5412 23.8459C29.5412 22.7999 29.5412 22.4512 29.5412 19.8941C29.5412 17.3371 29.5412 16.9884 29.5412 15.9423C29.5412 14.8963 29.3087 14.1989 29.0762 13.6177C28.8438 13.0366 28.4951 12.4554 27.9139 11.8743C27.3328 11.2931 26.8679 11.0607 26.1705 10.712C25.5894 10.4795 24.892 10.3633 23.8459 10.2471C22.7998 10.2471 22.5674 10.2471 19.8941 10.2471Z" fill="white"/>
        <path d="M19.8941 14.8963C17.1046 14.8963 14.8962 17.1046 14.8962 19.8941C14.8962 22.6836 17.1046 24.892 19.8941 24.892C22.6836 24.892 24.892 22.6836 24.892 19.8941C24.892 17.1046 22.6836 14.8963 19.8941 14.8963ZM19.8941 23.1486C18.1507 23.1486 16.6397 21.7538 16.6397 19.8941C16.6397 18.1507 18.0344 16.6397 19.8941 16.6397C21.6375 16.6397 23.1485 18.0345 23.1485 19.8941C23.1485 21.6376 21.6375 23.1486 19.8941 23.1486Z" fill="white"/>
        <path d="M25.0082 15.9423C25.6501 15.9423 26.1705 15.4219 26.1705 14.78C26.1705 14.1381 25.6501 13.6177 25.0082 13.6177C24.3663 13.6177 23.8459 14.1381 23.8459 14.78C23.8459 15.4219 24.3663 15.9423 25.0082 15.9423Z" fill="white"/>
    </g>
    <defs>
        <filter id="filter0_d_361_3059" x="6.24704" y="10.2471" width="27.2941" height="27.2941" filterUnits="userSpaceOnUse" color-interpolation-filters="sRGB">
            <feFlood flood-opacity="0" result="BackgroundImageFix"/>
            <feColorMatrix in="SourceAlpha" type="matrix" values="0 0 0 0 0 0 0 0 0 0 0 0 0 0 0 0 0 0 127 0" result="hardAlpha"/>
            <feOffset dy="4"/>
            <feGaussianBlur stdDeviation="2"/>
            <feComposite in2="hardAlpha" operator="out"/>
            <feColorMatrix type="matrix" values="0 0 0 0 0 0 0 0 0 0 0 0 0 0 0 0 0 0 0.15 0"/>
            <feBlend mode="normal" in2="BackgroundImageFix" result="effect1_dropShadow_361_3059"/>
            <feBlend mode="normal" in="SourceGraphic" in2="effect1_dropShadow_361_3059" result="shape"/>
        </filter>
    </defs>
</svg>
