<svg viewBox="0 0 47 49" fill="none" xmlns="http://www.w3.org/2000/svg">
    <circle cx="23.225" cy="20.9751" r="20.875" fill="#7D7D7D"/>
    <g filter="url(#filter0_d_16_14)">
        <rect x="4.04117" y="1.6001" width="38.5882" height="38.5882" rx="19.2941" fill="#3E3E3E"/>
        <rect x="4.24117" y="1.8001" width="38.1882" height="38.1882" rx="19.0941" stroke="black" stroke-width="0.4"/>
        <rect x="4.24117" y="1.8001" width="38.1882" height="38.1882" rx="19.0941" stroke="#C20000" stroke-opacity="0.53" stroke-width="0.4"/>
    </g>
    <g filter="url(#filter1_d_16_14)">
        <path d="M31.0529 21.6123V26.9333H27.9382V21.9367C27.9382 20.7038 27.4839 19.8602 26.3808 19.8602C25.5372 19.8602 25.0181 20.4443 24.8234 20.9634C24.7585 21.1581 24.6937 21.4176 24.6937 21.7421V26.9333H21.5789C21.5789 26.9333 21.6438 18.4975 21.5789 17.654H24.6937V18.9518C25.083 18.3029 25.8617 17.3944 27.4839 17.3944C29.4956 17.3944 31.0529 18.7571 31.0529 21.6123ZM18.3344 13.1765C17.2961 13.1765 16.5823 13.8903 16.5823 14.7988C16.5823 15.7072 17.2312 16.421 18.2695 16.421C19.3726 16.421 20.0215 15.7072 20.0215 14.7988C20.0864 13.8254 19.4375 13.1765 18.3344 13.1765ZM16.777 26.9333H19.8918V17.654H16.777V26.9333Z" fill="white"/>
    </g>
    <defs>
        <filter id="filter0_d_16_14" x="0.0411682" y="1.6001"  filterUnits="userSpaceOnUse" color-interpolation-filters="sRGB">
            <feFlood flood-opacity="0" result="BackgroundImageFix"/>
            <feColorMatrix in="SourceAlpha" type="matrix" values="0 0 0 0 0 0 0 0 0 0 0 0 0 0 0 0 0 0 127 0" result="hardAlpha"/>
            <feOffset dy="4"/>
            <feGaussianBlur stdDeviation="2"/>
            <feComposite in2="hardAlpha" operator="out"/>
            <feColorMatrix type="matrix" values="0 0 0 0 0 0 0 0 0 0 0 0 0 0 0 0 0 0 0.25 0"/>
            <feBlend mode="normal" in2="BackgroundImageFix" result="effect1_dropShadow_16_14"/>
            <feBlend mode="normal" in="SourceGraphic" in2="effect1_dropShadow_16_14" result="shape"/>
        </filter>
        <filter id="filter1_d_16_14" x="12.5823" y="13.1765"  filterUnits="userSpaceOnUse" color-interpolation-filters="sRGB">
            <feFlood flood-opacity="0" result="BackgroundImageFix"/>
            <feColorMatrix in="SourceAlpha" type="matrix" values="0 0 0 0 0 0 0 0 0 0 0 0 0 0 0 0 0 0 127 0" result="hardAlpha"/>
            <feOffset dy="4"/>
            <feGaussianBlur stdDeviation="2"/>
            <feComposite in2="hardAlpha" operator="out"/>
            <feColorMatrix type="matrix" values="0 0 0 0 0 0 0 0 0 0 0 0 0 0 0 0 0 0 0.15 0"/>
            <feBlend mode="normal" in2="BackgroundImageFix" result="effect1_dropShadow_16_14"/>
            <feBlend mode="normal" in="SourceGraphic" in2="effect1_dropShadow_16_14" result="shape"/>
        </filter>
    </defs>
</svg>
