<svg viewBox="0 0 39 40" fill="none" xmlns="http://www.w3.org/2000/svg">
    <rect x="0.241153" y="0.800006" width="38.1882" height="38.1882" rx="19.0941" stroke="#C20000" stroke-width="0.3"/>
    <g filter="url(#filter0_d_361_3061)">
        <path d="M27.0529 20.6123V25.9333H23.9382V20.9367C23.9382 19.7038 23.4839 18.8602 22.3808 18.8602C21.5372 18.8602 21.0181 19.4442 20.8234 19.9633C20.7585 20.158 20.6937 20.4176 20.6937 20.742V25.9333H17.5789C17.5789 25.9333 17.6438 17.4975 17.5789 16.6539H20.6937V17.9517C21.083 17.3028 21.8617 16.3944 23.4839 16.3944C25.4956 16.3944 27.0529 17.7571 27.0529 20.6123ZM14.3344 12.1765C13.2961 12.1765 12.5823 12.8903 12.5823 13.7987C12.5823 14.7072 13.2312 15.421 14.2695 15.421C15.3726 15.421 16.0215 14.7072 16.0215 13.7987C16.0864 12.8254 15.4375 12.1765 14.3344 12.1765ZM12.777 25.9333H15.8918V16.6539H12.777V25.9333Z" fill="white"/>
    </g>
    <defs>
        <filter id="filter0_d_361_3061" x="8.58234" y="12.1765" width="22.4706" height="21.7568" filterUnits="userSpaceOnUse" color-interpolation-filters="sRGB">
            <feFlood flood-opacity="0" result="BackgroundImageFix"/>
            <feColorMatrix in="SourceAlpha" type="matrix" values="0 0 0 0 0 0 0 0 0 0 0 0 0 0 0 0 0 0 127 0" result="hardAlpha"/>
            <feOffset dy="4"/>
            <feGaussianBlur stdDeviation="2"/>
            <feComposite in2="hardAlpha" operator="out"/>
            <feColorMatrix type="matrix" values="0 0 0 0 0 0 0 0 0 0 0 0 0 0 0 0 0 0 0.15 0"/>
            <feBlend mode="normal" in2="BackgroundImageFix" result="effect1_dropShadow_361_3061"/>
            <feBlend mode="normal" in="SourceGraphic" in2="effect1_dropShadow_361_3061" result="shape"/>
        </filter>
    </defs>
</svg>
