<svg viewBox="0 0 2484 2484" fill="none" xmlns="http://www.w3.org/2000/svg">
    <g filter="url(#filter0_d_764_732)">
        <circle cx="1234" cy="1234" r="601" fill="#F6C000"/>
        <g filter="url(#filter1_i_764_732)">
            <path d="M1234 1819.03C911.424 1819.03 648.984 1556.59 648.984 1234.01C648.984 911.435 911.424 648.996 1234 648.996C1556.58 648.996 1819.02 911.435 1819.02 1234.01C1819.02 1556.59 1556.58 1819.03 1234 1819.03Z" fill="url(#paint0_radial_764_732)"/>
        </g>
        <path d="M1139.79 445.521C1139.79 497.552 1181.97 539.735 1234 539.735C1286.03 539.735 1328.21 497.552 1328.21 445.521V178.214C1328.21 126.183 1286.03 84 1234 84C1181.97 84 1139.79 126.183 1139.79 178.214V445.521Z" fill="#F2C31D" stroke="#F7C000" stroke-width="24"/>
        <path d="M1139.79 2289.79C1139.79 2341.82 1181.97 2384 1234 2384C1286.03 2384 1328.21 2341.83 1328.21 2289.79V2022.48C1328.21 1970.45 1286.03 1928.27 1234 1928.27C1181.97 1928.27 1139.79 1970.45 1139.79 2022.48V2289.79Z" fill="#F2C31D" stroke="#F7C000" stroke-width="24"/>
        <path d="M2022.48 1328.21H2289.79C2341.83 1328.21 2384 1286.03 2384 1234C2384 1181.97 2341.82 1139.79 2289.79 1139.79H2022.48C1970.45 1139.79 1928.27 1181.97 1928.27 1234C1928.27 1286.03 1970.45 1328.21 2022.48 1328.21Z" fill="#F2C31D" stroke="#F7C000" stroke-width="24"/>
        <path d="M178.214 1328.21H445.521C497.552 1328.21 539.735 1286.03 539.735 1234C539.735 1181.97 497.552 1139.79 445.521 1139.79H178.214C126.183 1139.79 84 1181.97 84 1234C84 1286.03 126.183 1328.21 178.214 1328.21Z" fill="#F2C31D" stroke="#F7C000" stroke-width="24"/>
        <path d="M1724.93 743.069C1724.93 743.07 1724.93 743.07 1724.93 743.071C1743.32 761.473 1767.46 770.669 1791.54 770.669C1815.63 770.669 1839.77 761.474 1858.16 743.072C1858.16 743.071 1858.16 743.07 1858.16 743.069L2047.18 554.068C2083.97 517.285 2083.97 457.63 2047.18 420.836C2047.18 420.835 2047.18 420.835 2047.18 420.834C2010.39 384.025 1950.73 384.043 1913.94 420.833C1913.94 420.833 1913.94 420.833 1913.94 420.834L1724.93 609.837C1724.93 609.838 1724.93 609.838 1724.93 609.839L1724.93 743.069Z" fill="#F2C31D" stroke="#F7C000" stroke-width="24"/>
        <path d="M1733.25 734.745C1749.35 750.848 1770.45 758.895 1791.54 758.895C1812.64 758.895 1833.74 750.848 1849.83 734.745L2038.85 545.74C2071.05 513.556 2071.05 461.355 2038.85 429.16C2006.67 396.953 1954.47 396.964 1922.27 429.16L1733.25 618.165C1701.06 650.349 1701.06 702.55 1733.25 734.745Z" fill="#F5A200" stroke="#F5A200" stroke-width="0.45"/>
        <path d="M420.82 2047.17C420.821 2047.18 420.822 2047.18 420.823 2047.18C439.214 2065.58 463.354 2074.78 487.439 2074.78C511.536 2074.78 535.665 2065.58 554.055 2047.18C554.056 2047.18 554.057 2047.18 554.058 2047.17L743.07 1858.16L420.82 2047.17ZM420.82 2047.17C384.03 2010.38 384.029 1950.73 420.823 1913.94C420.823 1913.94 420.824 1913.94 420.824 1913.94L609.839 1724.93C646.632 1688.14 706.288 1688.13 743.072 1724.93C779.864 1761.72 779.867 1821.38 743.072 1858.16L420.82 2047.17Z" fill="#F2C31D" stroke="#F7C000" stroke-width="24"/>
        <path d="M1913.93 2047.18C1913.93 2047.18 1913.93 2047.18 1913.93 2047.17L1724.92 1858.16C1688.13 1821.37 1688.12 1761.71 1724.92 1724.93L1913.93 2047.18ZM1913.93 2047.18C1932.32 2065.58 1956.46 2074.78 1980.55 2074.78C2004.65 2074.78 2028.77 2065.58 2047.16 2047.18M1913.93 2047.18L2047.16 2047.18M2047.17 2047.18C2047.17 2047.18 2047.17 2047.17 2047.17 2047.17C2083.96 2010.39 2083.96 1950.74 2047.17 1913.94L1858.15 1724.93C1858.15 1724.93 1858.15 1724.93 1858.15 1724.93C1821.37 1688.13 1761.71 1688.14 1724.92 1724.93L2047.17 2047.18ZM2047.17 2047.18C2047.17 2047.18 2047.17 2047.18 2047.16 2047.18M2047.17 2047.18C2047.17 2047.18 2047.17 2047.18 2047.16 2047.18" fill="#F2C31D" stroke="#F7C000" stroke-width="24"/>
        <path d="M420.823 554.066L420.823 554.066L609.836 743.069C609.837 743.07 609.838 743.071 609.839 743.072C628.23 761.474 652.37 770.669 676.455 770.669C700.553 770.669 724.681 761.473 743.072 743.071C743.073 743.07 743.074 743.07 743.075 743.069C779.865 706.275 779.864 646.632 743.072 609.839L743.071 609.839L554.058 420.836C554.057 420.835 554.056 420.834 554.055 420.833C517.269 384.025 457.613 384.043 420.823 420.834C384.029 457.627 384.029 517.272 420.823 554.066Z" fill="#F2C31D" stroke="#F7C000" stroke-width="24"/>
        <path d="M1151.56 445.521C1151.56 491.049 1188.47 527.96 1234 527.96C1279.53 527.96 1316.44 491.049 1316.44 445.521V178.214C1316.44 132.686 1279.53 95.775 1234 95.775C1188.47 95.775 1151.56 132.686 1151.56 178.214V445.521Z" fill="#F5A200" stroke="#F5A200" stroke-width="0.45"/>
        <path d="M1151.56 2289.79C1151.56 2335.31 1188.47 2372.23 1234 2372.23C1279.53 2372.23 1316.44 2335.33 1316.44 2289.79V2022.48C1316.44 1976.95 1279.53 1940.04 1234 1940.04C1188.47 1940.04 1151.56 1976.95 1151.56 2022.48V2289.79Z" fill="#F5A200" stroke="#F5A200" stroke-width="0.45"/>
        <path d="M2022.48 1316.44H2289.79C2335.33 1316.44 2372.23 1279.53 2372.23 1234C2372.23 1188.47 2335.31 1151.56 2289.79 1151.56H2022.48C1976.95 1151.56 1940.04 1188.47 1940.04 1234C1940.04 1279.53 1976.95 1316.44 2022.48 1316.44Z" fill="#F5A200" stroke="#F5A200" stroke-width="0.45"/>
        <path d="M178.214 1316.44H445.521C491.049 1316.44 527.96 1279.53 527.96 1234C527.96 1188.47 491.049 1151.56 445.521 1151.56H178.214C132.686 1151.56 95.775 1188.47 95.775 1234C95.775 1279.53 132.686 1316.44 178.214 1316.44Z" fill="#F5A200" stroke="#F5A200" stroke-width="0.45"/>
        <path d="M429.149 2038.85C445.241 2054.95 466.346 2063 487.439 2063C508.543 2063 529.637 2054.95 545.729 2038.85L734.746 1849.84C766.941 1817.65 766.941 1765.45 734.746 1733.25C702.561 1701.06 650.361 1701.06 618.165 1733.25L429.149 1922.27C396.954 1954.46 396.954 2006.66 429.149 2038.85Z" fill="#F5A200" stroke="#F5A200" stroke-width="0.45"/>
        <path d="M1922.26 2038.85C1938.35 2054.95 1959.46 2063 1980.55 2063C2001.65 2063 2022.75 2054.95 2038.84 2038.85C2071.04 2006.67 2071.04 1954.47 2038.84 1922.27L1849.82 1733.25C1817.64 1701.06 1765.44 1701.06 1733.24 1733.25C1701.05 1765.44 1701.05 1817.64 1733.24 1849.84L1922.26 2038.85Z" fill="#F5A200" stroke="#F5A200" stroke-width="0.45"/>
        <path d="M618.165 734.745C634.257 750.848 655.362 758.895 676.455 758.895C697.559 758.895 718.653 750.848 734.746 734.745C766.941 702.55 766.941 650.36 734.746 618.165L545.729 429.16C513.545 396.953 461.344 396.964 429.149 429.16C396.954 461.355 396.954 513.545 429.149 545.74L618.165 734.745Z" fill="#F5A200" stroke="#F5A200" stroke-width="0.45"/>
    </g>
    <defs>
        <filter id="filter0_d_764_732" x="0" y="0" width="2484" height="2484" filterUnits="userSpaceOnUse" color-interpolation-filters="sRGB">
            <feFlood flood-opacity="0" result="BackgroundImageFix"/>
            <feColorMatrix in="SourceAlpha" type="matrix" values="0 0 0 0 0 0 0 0 0 0 0 0 0 0 0 0 0 0 127 0" result="hardAlpha"/>
            <feOffset dx="8" dy="8"/>
            <feGaussianBlur stdDeviation="40"/>
            <feComposite in2="hardAlpha" operator="out"/>
            <feColorMatrix type="matrix" values="0 0 0 0 0 0 0 0 0 0 0 0 0 0 0 0 0 0 0.25 0"/>
            <feBlend mode="normal" in2="BackgroundImageFix" result="effect1_dropShadow_764_732"/>
            <feBlend mode="normal" in="SourceGraphic" in2="effect1_dropShadow_764_732" result="shape"/>
        </filter>
        <filter id="filter1_i_764_732" x="648.984" y="648.996" width="1170.03" height="1170.03" filterUnits="userSpaceOnUse" color-interpolation-filters="sRGB">
            <feFlood flood-opacity="0" result="BackgroundImageFix"/>
            <feBlend mode="normal" in="SourceGraphic" in2="BackgroundImageFix" result="shape"/>
            <feColorMatrix in="SourceAlpha" type="matrix" values="0 0 0 0 0 0 0 0 0 0 0 0 0 0 0 0 0 0 127 0" result="hardAlpha"/>
            <feOffset/>
            <feGaussianBlur stdDeviation="75"/>
            <feComposite in2="hardAlpha" operator="arithmetic" k2="-1" k3="1"/>
            <feColorMatrix type="matrix" values="0 0 0 0 0 0 0 0 0 0 0 0 0 0 0 0 0 0 0.5 0"/>
            <feBlend mode="normal" in2="shape" result="effect1_innerShadow_764_732"/>
        </filter>
        <radialGradient id="paint0_radial_764_732" cx="0" cy="0" r="1" gradientUnits="userSpaceOnUse" gradientTransform="translate(2341 546.5) rotate(138.442) scale(2261.16)">
            <stop stop-color="#F5A200"/>
            <stop offset="1" stop-color="#F5A200" stop-opacity="0"/>
        </radialGradient>
    </defs>
</svg>
