<svg viewBox="0 0 40 40" fill="none" xmlns="http://www.w3.org/2000/svg">
    <rect x="0.68233" y="0.800006" width="38.1882" height="38.1882" rx="19.0941" stroke="#C20000" stroke-width="0.3"/>
    <g filter="url(#filter0_d_762_583)">
        <path d="M30.0023 14.9741C29.327 15.2635 28.5553 15.4565 27.7835 15.5529C28.5553 15.0706 29.2306 14.2988 29.52 13.4306C28.7482 13.9129 27.9764 14.2024 27.0117 14.3953C26.3364 13.6235 25.2753 13.1412 24.2141 13.1412C22.0917 13.1412 20.3553 14.8776 20.3553 17C20.3553 17.2894 20.3553 17.5788 20.4517 17.8682C17.2682 17.6753 14.3741 16.1318 12.4447 13.8165C12.1553 14.3953 11.9623 15.0706 11.9623 15.7459C11.9623 17.0965 12.6376 18.2541 13.6988 18.9294C13.0235 18.9294 12.4447 18.7365 11.9623 18.4471C11.9623 20.28 13.3129 21.92 15.0494 22.2094C14.76 22.3059 14.3741 22.3059 13.9882 22.3059C13.6988 22.3059 13.5059 22.3059 13.2164 22.2094C13.6988 23.7529 15.1459 24.9106 16.8823 24.9106C15.5317 25.9718 13.8917 26.5506 12.0588 26.5506C11.7694 26.5506 11.48 26.5506 11.0941 26.4541C12.8306 27.5153 14.8564 28.1906 17.0753 28.1906C24.2141 28.1906 28.0729 22.3059 28.0729 17.1929V16.7106C28.8447 16.4212 29.52 15.7459 30.0023 14.9741Z" fill="white"/>
    </g>
    <defs>
        <filter id="filter0_d_762_583" x="7.09409" y="13.1412" width="26.9082" height="23.0494" filterUnits="userSpaceOnUse" color-interpolation-filters="sRGB">
            <feFlood flood-opacity="0" result="BackgroundImageFix"/>
            <feColorMatrix in="SourceAlpha" type="matrix" values="0 0 0 0 0 0 0 0 0 0 0 0 0 0 0 0 0 0 127 0" result="hardAlpha"/>
            <feOffset dy="4"/>
            <feGaussianBlur stdDeviation="2"/>
            <feComposite in2="hardAlpha" operator="out"/>
            <feColorMatrix type="matrix" values="0 0 0 0 0 0 0 0 0 0 0 0 0 0 0 0 0 0 0.15 0"/>
            <feBlend mode="normal" in2="BackgroundImageFix" result="effect1_dropShadow_762_583"/>
            <feBlend mode="normal" in="SourceGraphic" in2="effect1_dropShadow_762_583" result="shape"/>
        </filter>
    </defs>
</svg>
