<svg viewBox="0 0 48 49" fill="none" xmlns="http://www.w3.org/2000/svg">
    <circle cx="23.675" cy="20.9751" r="20.875" fill="#7D7D7D"/>
    <g filter="url(#filter0_d_16_14)">
        <rect x="4.48236" y="1.6001" width="38.5882" height="38.5882" rx="19.2941" fill="#3E3E3E"/>
        <rect x="4.68236" y="1.8001" width="38.1882" height="38.1882" rx="19.0941" stroke="black" stroke-width="0.4"/>
        <rect x="4.68236" y="1.8001" width="38.1882" height="38.1882" rx="19.0941" stroke="#C20000" stroke-opacity="0.53" stroke-width="0.4"/>
    </g>
    <g filter="url(#filter1_d_16_14)">
        <path d="M34.0023 15.9743C33.3271 16.2637 32.5553 16.4567 31.7835 16.5531C32.5553 16.0708 33.2306 15.299 33.52 14.4308C32.7482 14.9131 31.9765 15.2025 31.0118 15.3955C30.3365 14.6237 29.2753 14.1414 28.2141 14.1414C26.0918 14.1414 24.3553 15.8778 24.3553 18.0002C24.3553 18.2896 24.3553 18.579 24.4518 18.8684C21.2682 18.6755 18.3741 17.1319 16.4447 14.8166C16.1553 15.3955 15.9624 16.0708 15.9624 16.7461C15.9624 18.0966 16.6377 19.2543 17.6988 19.9296C17.0235 19.9296 16.4447 19.7367 15.9624 19.4472C15.9624 21.2802 17.3129 22.9202 19.0494 23.2096C18.76 23.3061 18.3741 23.3061 17.9882 23.3061C17.6988 23.3061 17.5059 23.3061 17.2165 23.2096C17.6988 24.7531 19.1459 25.9108 20.8824 25.9108C19.5318 26.9719 17.8918 27.5508 16.0588 27.5508C15.7694 27.5508 15.48 27.5508 15.0941 27.4543C16.8306 28.5155 18.8565 29.1908 21.0753 29.1908C28.2141 29.1908 32.0729 23.3061 32.0729 18.1931V17.7108C32.8447 17.4214 33.52 16.7461 34.0023 15.9743Z" fill="white"/>
    </g>
    <defs>
        <filter id="filter0_d_16_14" x="0.482361" y="1.6001" filterUnits="userSpaceOnUse" color-interpolation-filters="sRGB">
            <feFlood flood-opacity="0" result="BackgroundImageFix"/>
            <feColorMatrix in="SourceAlpha" type="matrix" values="0 0 0 0 0 0 0 0 0 0 0 0 0 0 0 0 0 0 127 0" result="hardAlpha"/>
            <feOffset dy="4"/>
            <feGaussianBlur stdDeviation="2"/>
            <feComposite in2="hardAlpha" operator="out"/>
            <feColorMatrix type="matrix" values="0 0 0 0 0 0 0 0 0 0 0 0 0 0 0 0 0 0 0.25 0"/>
            <feBlend mode="normal" in2="BackgroundImageFix" result="effect1_dropShadow_16_14"/>
            <feBlend mode="normal" in="SourceGraphic" in2="effect1_dropShadow_16_14" result="shape"/>
        </filter>
        <filter id="filter1_d_16_14" x="11.0941" y="14.1414" filterUnits="userSpaceOnUse" color-interpolation-filters="sRGB">
            <feFlood flood-opacity="0" result="BackgroundImageFix"/>
            <feColorMatrix in="SourceAlpha" type="matrix" values="0 0 0 0 0 0 0 0 0 0 0 0 0 0 0 0 0 0 127 0" result="hardAlpha"/>
            <feOffset dy="4"/>
            <feGaussianBlur stdDeviation="2"/>
            <feComposite in2="hardAlpha" operator="out"/>
            <feColorMatrix type="matrix" values="0 0 0 0 0 0 0 0 0 0 0 0 0 0 0 0 0 0 0.15 0"/>
            <feBlend mode="normal" in2="BackgroundImageFix" result="effect1_dropShadow_16_14"/>
            <feBlend mode="normal" in="SourceGraphic" in2="effect1_dropShadow_16_14" result="shape"/>
        </filter>
    </defs>
</svg>
